<?xml version="1.0" encoding="UTF-8" standalone="no"?>
<!-- Created with Inkscape (http://www.inkscape.org/) -->

<svg
   width="132.12mm"
   height="136.354mm"
   viewBox="0 0 132.12 136.354"
   version="1.1"
   id="svg5"
   xml:space="preserve"
   inkscape:version="1.3 (1:1.3+202307231459+0e150ed6c4)"
   sodipodi:docname="eye-map.svg"
   inkscape:export-filename="../traditional-eye-map.png"
   inkscape:export-xdpi="106.6"
   inkscape:export-ydpi="106.6"
   xmlns:inkscape="http://www.inkscape.org/namespaces/inkscape"
   xmlns:sodipodi="http://sodipodi.sourceforge.net/DTD/sodipodi-0.dtd"
   xmlns="http://www.w3.org/2000/svg"
   xmlns:svg="http://www.w3.org/2000/svg"><sodipodi:namedview
     id="namedview7"
     pagecolor="#ffffff"
     bordercolor="#eeeeee"
     borderopacity="1"
     inkscape:showpageshadow="0"
     inkscape:pageopacity="0"
     inkscape:pagecheckerboard="0"
     inkscape:deskcolor="#505050"
     inkscape:document-units="mm"
     showgrid="false"
     inkscape:zoom="1.7852694"
     inkscape:cx="179.52473"
     inkscape:cy="292.95299"
     inkscape:window-width="2512"
     inkscape:window-height="1376"
     inkscape:window-x="1968"
     inkscape:window-y="268"
     inkscape:window-maximized="1"
     inkscape:current-layer="g2708" /><defs
     id="defs2" /><g
     inkscape:label="Layer 1"
     inkscape:groupmode="layer"
     id="layer1"
     transform="translate(-1.485705,-1.594415)" /><g
     inkscape:groupmode="layer"
     id="layer2"
     inkscape:label="actual_map"
     transform="translate(-1.485705,-1.594415)"><g
       id="g2708"
       transform="translate(-36.364213,-81.416312)"><circle
         style="fill:#ffffff;stroke:#000000;stroke-width:1.6;stroke-linecap:round;stroke-linejoin:round;stroke-opacity:1;fill-opacity:1"
         id="path431"
         cx="104.11457"
         cy="148.0555"
         r="55.109303" /><g
         id="g2674"><path
           style="fill:none;stroke:#000000;stroke-width:1.065;stroke-linecap:round;stroke-linejoin:miter;stroke-dasharray:1.065, 4.26;stroke-dashoffset:0;stroke-opacity:1"
           d="m 49.093106,148.30348 c 0,0 0.14169,7.79062 8.423754,13.01204 8.282061,5.22141 26.139915,12.8598 51.36103,11.66061 25.22111,-1.19919 38.92412,-8.33159 45.04039,-13.5268 3.58351,-3.04386 5.1973,-6.93569 5.23333,-9.73848"
           id="path1148"
           sodipodi:nodetypes="csssc" /><path
           style="fill:none;stroke:#000000;stroke-width:1.065;stroke-linecap:round;stroke-linejoin:miter;stroke-dasharray:1.065, 4.26;stroke-dashoffset:0;stroke-opacity:1"
           d="m 126.84266,97.747163 c 0,0 -11.46173,-3.764487 -24.47007,2.554907 -13.008335,6.31939 -24.925604,20.69147 -31.393492,34.29939 -6.46789,13.60792 -7.131024,32.07265 -5.804678,39.75686 1.326348,7.68421 3.353517,10.9364 4.953032,13.88945 1.599517,2.95305 7.183742,7.84165 9.715805,9.18071"
           id="path1177"
           sodipodi:nodetypes="cssssc" /><path
           style="fill:none;stroke:#000000;stroke-width:1.065;stroke-linecap:round;stroke-linejoin:miter;stroke-dasharray:1.065, 4.26;stroke-dashoffset:0;stroke-opacity:1"
           d="m 82.026459,98.200533 c 0,0 10.153895,-4.834712 23.162241,1.484685 13.00833,6.319392 22.40338,18.443002 29.64132,33.978802 7.97864,17.12569 8.11746,33.39411 6.79112,41.07832 -1.32635,7.68421 -2.51677,10.06608 -4.61966,13.81535 -2.39582,4.27151 -3.21484,6.48101 -8.87363,9.14762"
           id="path1177-7"
           sodipodi:nodetypes="cssssc" /></g><g
         id="g2680"><path
           style="fill:none;stroke:#000000;stroke-width:2.165;stroke-linecap:round;stroke-linejoin:miter;stroke-dasharray:none;stroke-opacity:1"
           d="M 63.935577,165.61529 39.461585,176.02773"
           id="path465"
           sodipodi:nodetypes="cc" /><path
           style="fill:none;stroke:#000000;stroke-width:2.165;stroke-linecap:round;stroke-linejoin:miter;stroke-dasharray:none;stroke-opacity:1"
           d="m 142.68069,166.75416 25.73634,12.04353"
           id="path467"
           sodipodi:nodetypes="cc" /><path
           style="fill:none;stroke:#000000;stroke-width:2.165;stroke-linecap:round;stroke-linejoin:miter;stroke-dasharray:none;stroke-opacity:1"
           d="M 104.53013,98.711999 V 84.622394"
           id="path469" /><path
           style="fill:none;stroke:#000000;stroke-width:2.165;stroke-linecap:round;stroke-linejoin:miter;stroke-dasharray:none;stroke-opacity:1"
           d="M 104.40169,217.81157 V 203.91156"
           id="path469-3" /></g><g
         id="g2669"
         style="stroke-width:0.8;stroke-dasharray:none"><path
           style="fill:none;stroke:#000000;stroke-width:0.8;stroke-linecap:butt;stroke-linejoin:miter;stroke-dasharray:none;stroke-opacity:1"
           d="m 157.54255,134.54674 c 0,0 -0.52875,1.0023 -1.3095,0.63682 -0.78075,-0.36547 -1.71195,-0.72395 -1.97394,-0.05 -0.26199,0.67396 0.45908,3.26058 0.0829,3.87709 -0.37623,0.6165 -0.99764,1.82562 -1.92327,1.1991 -0.92564,-0.62653 -2.27046,-5.00746 -2.12786,-5.49268 0.1426,-0.48522 1.20044,-3.37669 1.3728,-4.59258 0.17235,-1.2159 -0.24966,-2.74997 -0.1389,-4.87056 0.11075,-2.1206 -0.57714,-3.12496 0.45307,-4.5141"
           id="path1102" /><path
           style="fill:none;stroke:#000000;stroke-width:0.8;stroke-linecap:butt;stroke-linejoin:miter;stroke-dasharray:none;stroke-opacity:1"
           d="m 97.094993,156.63722 c 0.05393,-0.068 0.968143,-1.12077 0.398559,-1.62888 -0.569585,-0.50812 -2.503162,-1.37214 -3.945411,-1.16255 -1.442247,0.20959 -4.272704,0.26028 -4.328401,0.86425 -0.0557,0.60398 0.424119,3.54606 1.528709,4.31973 1.104591,0.77368 3.869743,1.13657 4.816806,0.54182 0.947063,-0.59475 1.449438,-0.40117 1.654474,-1.17951 0.205036,-0.77834 -0.263435,-0.91033 -0.419034,-1.06602 -0.155597,-0.15569 0.208192,-0.58033 0.294298,-0.68884 z"
           id="path1104"
           sodipodi:nodetypes="ssssssszs" /><path
           style="fill:none;stroke:#000000;stroke-width:0.8;stroke-linecap:butt;stroke-linejoin:miter;stroke-dasharray:none;stroke-opacity:1"
           d="m 145.56323,111.79353 c 0.88261,5.57103 0.31448,4.64043 -1.26082,7.07872 -1.5753,2.4383 -5.10362,6.93098 -6.63124,9.3238 -1.52763,2.39283 -2.79849,6.12155 -5.84019,7.63105 -3.0417,1.5095 -3.19878,0.0662 -6.01449,1.29831 -2.81571,1.23212 -4.77473,2.45706 -7.28774,4.81104 -2.513,2.35399 -3.1607,4.10737 -5.36811,4.3095 -2.2074,0.20214 -6.90474,-1.80632 -10.91563,-2.74779 -4.010887,-0.94148 -9.111662,-1.86624 -14.150855,-0.90943 -5.039193,0.95681 -12.925735,4.15859 -14.380832,5.91127 -1.4551,1.75268 -3.985704,9.63713 2.247567,14.94069 6.233271,5.30356 14.66298,8.89426 21.851043,7.63862 7.188067,-1.25564 12.462897,-2.9761 14.833637,-4.42377 2.37073,-1.44766 5.55642,-3.0579 7.27346,-3.09544 1.71704,-0.0375 3.89042,1.71098 6.35244,2.452 2.46202,0.74102 9.81136,0.48934 12.43736,0.27256 2.626,-0.21677 10.63064,-3.33483 11.93525,-4.40209 1.30462,-1.06726 5.60315,-4.18662 7.01548,-6.96179 1.41232,-2.77517 1.63593,-3.89682 1.63593,-3.89682"
           id="path1204" /><path
           style="fill:none;stroke:#000000;stroke-width:0.8;stroke-linecap:butt;stroke-linejoin:miter;stroke-dasharray:none;stroke-opacity:1"
           d="m 138.80853,105.23769 c 0,0 2.36281,3.35984 1.89889,5.725 -0.46391,2.36516 -3.26798,5.66556 -5.68559,8.9611 -2.41761,3.29554 -4.30965,6.96145 -7.59198,8.15059 -3.28233,1.18914 -3.73838,-0.13622 -6.32698,1.18914 -2.58861,1.32536 -6.99522,5.49828 -10.06158,6.18218 -3.06636,0.68389 -13.367144,-2.86197 -21.244044,-1.6492 -7.876897,1.21277 -15.990916,1.33249 -20.289274,5.2658 -4.298357,3.93332 -8.388138,10.32621 -7.530359,15.95111 0.857779,5.62491 5.127334,14.16444 12.395137,18.29477 7.267799,4.13033 18.037833,6.43312 27.39091,5.2302 9.35307,-1.20292 14.46913,-4.232 17.05225,-4.22686 2.58313,0.005 6.43588,3.44548 10.14931,3.4464 3.71343,8e-4 7.53776,-4.01075 9.67029,-4.36373 2.13252,-0.35297 5.9668,1.77015 9.15435,-0.63203 3.18756,-2.40219 6.23334,-5.20406 9.8697,-11.91259"
           id="path1206" /><path
           style="fill:none;stroke:#000000;stroke-width:0.8;stroke-linecap:butt;stroke-linejoin:miter;stroke-dasharray:none;stroke-opacity:1"
           d="m 122.87252,96.236826 c 0,0 6.1507,3.782034 6.45675,6.700524 0.30605,2.9185 0.41878,8.1055 -6.75671,13.09095 -7.17548,4.98544 -10.93806,5.01155 -22.21396,4.63272 -11.275901,-0.37882 -16.667353,-2.94213 -21.502983,-5.91516 -4.835631,-2.97303 -8.574871,-5.14421 -9.446948,-6.96036 -0.872077,-1.81614 1.584944,-3.77586 1.584944,-3.77586"
           id="path1208" /><path
           style="fill:none;stroke:#000000;stroke-width:0.8;stroke-linecap:butt;stroke-linejoin:miter;stroke-dasharray:none;stroke-opacity:1"
           d="m 148.03979,114.77471 c 1.59656,7.14488 1.59656,6.8136 0.53758,8.76762 -1.05897,1.95402 -5.93427,8.63111 -7.16558,12.07212 -1.23131,3.441 -6.16557,8.05363 -7.46527,10.46959 -1.29969,2.41596 -3.09879,6.87753 -1.06776,8.00503 2.03103,1.12751 9.12655,2.68319 13.68048,1.50024 4.55393,-1.18295 8.38406,-3.58907 10.51497,-6.28042 2.1309,-2.69136 2.08905,-3.83746 2.08905,-3.83746"
           id="path1202" /></g></g></g></svg>
