<?xml version="1.0" encoding="UTF-8" standalone="no"?>
<!-- Created with Inkscape (http://www.inkscape.org/) -->

<svg
   width="64.702133mm"
   height="37.133003mm"
   viewBox="0 0 64.702133 37.133003"
   version="1.1"
   id="svg1712"
   xml:space="preserve"
   inkscape:version="1.2.2 (732a01da63, 2022-12-09, custom)"
   sodipodi:docname="eye-surface.svg"
   xmlns:inkscape="http://www.inkscape.org/namespaces/inkscape"
   xmlns:sodipodi="http://sodipodi.sourceforge.net/DTD/sodipodi-0.dtd"
   xmlns:xlink="http://www.w3.org/1999/xlink"
   xmlns="http://www.w3.org/2000/svg"
   xmlns:svg="http://www.w3.org/2000/svg"><sodipodi:namedview
     id="namedview1714"
     pagecolor="#ffffff"
     bordercolor="#eeeeee"
     borderopacity="1"
     inkscape:showpageshadow="0"
     inkscape:pageopacity="0"
     inkscape:pagecheckerboard="0"
     inkscape:deskcolor="#505050"
     inkscape:document-units="mm"
     showgrid="false"
     inkscape:zoom="5.6568543"
     inkscape:cx="141.8633"
     inkscape:cy="78.223687"
     inkscape:window-width="2508"
     inkscape:window-height="1376"
     inkscape:window-x="1972"
     inkscape:window-y="904"
     inkscape:window-maximized="1"
     inkscape:current-layer="layer1" /><defs
     id="defs1709" /><g
     inkscape:label="Layer 1"
     inkscape:groupmode="layer"
     id="layer1"
     style="display:inline"
     transform="translate(-70.138224,-94.40679)"><image
       width="67.648666"
       height="40.047333"
       preserveAspectRatio="none"
       style="display:none;image-rendering:optimizeQuality"
       xlink:href="../ba678313/surface%20model%20diagram.png"
       id="image1857"
       x="68.885315"
       y="93.082558" /><path
       style="fill:#ffffff;fill-opacity:1;stroke:#8f8f8f;stroke-width:0.665;stroke-linecap:butt;stroke-linejoin:miter;stroke-dasharray:none;stroke-opacity:1"
       d="m 70.488224,122.73759 3.250563,4.24301 7.492539,2.9831 10.401874,1.2421 12.1411,-0.91501 11.57372,-3.07574 9.56656,-4.512 6.14777,-4.77599 3.36516,-5.23072 0.0359,-5.54159 -2.17304,-4.36476 -3.17975,-3.561296 -4.67211,-2.244833 -6.87012,-1.577282 -5.98508,-0.657182 -7.75196,0.61982 -10.054544,2.375236 -7.524027,2.976307 -7.161586,4.24634 -5.31387,5.46788 -2.683907,5.22067 z"
       id="path1924"
       inkscape:label="outer-paths" /><g
       id="g1971"
       inkscape:label="inner-paths"
       style="display:inline;stroke:#8f8f8f;stroke-width:0.7;stroke-linecap:round;stroke-linejoin:bevel;stroke-dasharray:none;stroke-opacity:1"><path
         style="fill:none;stroke:#8f8f8f;stroke-width:0.7;stroke-linecap:round;stroke-linejoin:bevel;stroke-dasharray:none;stroke-opacity:1"
         d="m 70.488224,122.73759 1.778593,-1.81579 -1.173401,-5.26615 c 0,0 4.039384,-1.70443 4.167513,-1.80622 0.12813,-0.1018 -1.483606,-3.41445 -1.483606,-3.41445 0,0 2.245627,-1.47175 2.400724,-1.51537 0.155096,-0.0436 2.913144,-3.95251 2.913144,-3.95251 l 4.288904,-1.23564 c 0,0 2.872684,-3.0107 2.872684,-3.0107 l 6.021978,-0.930249 1.502047,-2.04606 6.940796,-0.445511 3.11375,-1.929725 5.83552,0.519128 1.91644,-1.138946 5.77789,1.206809 0.20719,-0.549629 6.19912,2.498291 0.671,-0.921007"
         id="path1926" /><path
         style="fill:none;stroke:#8f8f8f;stroke-width:0.7;stroke-linecap:round;stroke-linejoin:bevel;stroke-dasharray:none;stroke-opacity:1"
         d="m 129.11062,99.228692 -5.34311,-1.323824 4.19445,3.000552 1.14866,-1.676728"
         id="path1928" /><path
         style="fill:none;stroke:#8f8f8f;stroke-width:0.7;stroke-linecap:round;stroke-linejoin:bevel;stroke-dasharray:none;stroke-opacity:1"
         d="m 132.29037,102.78999 -4.32841,-1.88457 3.13573,4.21725 1.63192,5.89445 -1.66726,6.90994 -3.43757,-1.91225 0.263,-7.04329 -2.50858,-5.13342 -4.06632,-3.49983 -5.38805,-2.719401"
         id="path1930" /><path
         style="fill:none;stroke:#8f8f8f;stroke-width:0.7;stroke-linecap:round;stroke-linejoin:bevel;stroke-dasharray:none;stroke-opacity:1"
         d="m 115.92483,97.618869 c 0,0 -6.25796,-1.730529 -6.25796,-1.730529 l -2.04327,2.603064 5.36107,2.287976 3.42569,2.88906 3.35152,4.14558 1.76679,5.93704 -1.49031,6.80093 4.87622,2.15106 2.7102,-6.68824 5.10483,-4.99769 1.7338,-3.86237 -3.36572,-2.03208 -3.20991,3.84885 4.84183,2.0456 1.6979,1.67922"
         id="path1932" /><path
         style="fill:none;stroke:#8f8f8f;stroke-width:0.7;stroke-linecap:round;stroke-linejoin:bevel;stroke-dasharray:none;stroke-opacity:1"
         d="m 132.29037,102.78999 -1.19268,2.33268 -5.71849,-1.28457 c 0,0 2.58276,-2.93268 2.58276,-2.93268 0,0 -6.64908,-0.56715 -6.64908,-0.56715 l 2.45463,-2.433402 -7.84268,-0.285999 1.43637,-1.662663 6.40631,1.948662"
         id="path1934" /><path
         style="fill:none;stroke:#8f8f8f;stroke-width:0.7;stroke-linecap:round;stroke-linejoin:bevel;stroke-dasharray:none;stroke-opacity:1"
         d="m 117.3612,95.956206 -7.69433,-0.06787"
         id="path1936" /><path
         style="fill:none;stroke:#8f8f8f;stroke-width:0.7;stroke-linecap:round;stroke-linejoin:bevel;stroke-dasharray:none;stroke-opacity:1"
         d="m 120.03836,120.55199 7.58642,-4.53718 c 0,0 -6.09611,-2.26375 -6.09611,-2.26375 l 6.35911,-4.77954 -8.1259,-1.1575 5.61732,-3.97592 -8.96884,-0.16966 4.90252,-3.33017 -8.32821,0.44111 2.94016,-3.160511 -8.30123,0.872535 c 0,0 -6.906,-1.192464 -6.906,-1.192464 l 8.94927,-1.4106"
         id="path1938" /><path
         style="fill:none;stroke:#8f8f8f;stroke-width:0.7;stroke-linecap:round;stroke-linejoin:bevel;stroke-dasharray:none;stroke-opacity:1"
         d="m 115.34802,127.21505 4.69034,-6.66306 -5.57964,-2.42472 7.06995,-4.37621 -8.84069,-0.77346 7.0739,-5.16358 h -9.64316 l 6.29164,-4.14558 -8.99731,0.58755 5.57162,-3.47661 -7.98467,0.59239 2.6236,-2.880366 -8.867663,2.048006 1.961663,-3.24047 -8.442843,2.491571 c 0,0 -8.894662,3.940949 -8.894662,3.940949 l -7.202048,5.18815 -0.917118,4.92982 -2.994112,7.07237 c 0,0 1.47197,6.0588 1.47197,6.0588 l 3.956886,-3.12651 3.535653,6.10961 5.082532,-4.41134 5.31934,5.65344 6.670582,-5.83279 5.47052,4.91778 6.04736,-6.20235 z"
         id="path1940" /><path
         style="fill:none;stroke:#8f8f8f;stroke-width:0.7;stroke-linecap:round;stroke-linejoin:bevel;stroke-dasharray:none;stroke-opacity:1"
         d="m 120.03836,120.55199 c 0,0 -10.2167,3.53645 -10.2167,3.53645 l 4.63706,-5.96117 -1.77074,-5.14967 -2.56926,-5.16358 -2.70567,-3.55803 -2.41305,-2.88422 -6.244063,-0.83236 -6.48118,-0.748899 -1.826956,3.804549 -7.067706,0.1364 -1.67186,4.48013 -5.530188,0.70802"
         id="path1942" /><path
         style="fill:none;stroke:#8f8f8f;stroke-width:0.7;stroke-linecap:round;stroke-linejoin:bevel;stroke-dasharray:none;stroke-opacity:1"
         d="m 81.708235,108.21159 c 0,0 -6.447306,5.63784 -6.447306,5.63784 l 1.908487,4.2734 -4.902599,2.79897 5.428856,2.93229 c 0,0 8.618185,1.69827 8.618185,1.69827 l 11.989922,-0.17935 11.51788,-1.28457 -4.82166,-5.25789 7.68798,-5.85295 -10.71919,0.26389 8.14993,-5.42747 -10.698965,0.39757 7.993295,-3.9556 -9.436398,-0.11795 0.779285,-3.59863 -8.308136,3.05565 z"
         id="path1944" /><path
         style="fill:none;stroke:#8f8f8f;stroke-width:0.7;stroke-linecap:round;stroke-linejoin:bevel;stroke-dasharray:none;stroke-opacity:1"
         d="m 105,101.37177 -7.023348,2.76627 -7.528851,-0.54298 -0.711425,4.61653 h -8.028141 l 0.327078,4.89463 -6.774384,0.74321"
         id="path1946" /><path
         style="fill:none;stroke:#8f8f8f;stroke-width:0.7;stroke-linecap:round;stroke-linejoin:bevel;stroke-dasharray:none;stroke-opacity:1"
         d="M 114.45872,118.12727 105,118.83055 c 0,0 -6.69622,6.54246 -6.69622,6.54246 l -4.72362,-6.23222 -7.266302,6.41157 -2.768007,-6.66848 -5.850178,4.97021 -0.526259,-5.73126 4.865899,-5.01661 c 0,0 7.701063,-4.89463 7.701063,-4.89463 l 8.240276,-4.07355 1.443101,4.07355 2.549037,5.0299 3.03121,5.58906"
         id="path1948" /><path
         style="fill:none;stroke:#8f8f8f;stroke-width:0.7;stroke-linecap:round;stroke-linejoin:bevel;stroke-dasharray:none;stroke-opacity:1"
         d="m 105,118.83055 c 0,0 -11.419842,0.31024 -11.419842,0.31024 0,0 8.388632,-5.8993 8.388632,-5.8993 l -11.375992,-0.13527 2.98736,6.03457 -10.034307,-0.25691 -6.376437,-0.76105"
         id="path1950" /><path
         style="fill:none;stroke:#8f8f8f;stroke-width:0.7;stroke-linecap:round;stroke-linejoin:bevel;stroke-dasharray:none;stroke-opacity:1"
         d="m 90.592798,113.10622 h -8.557485 l 1.510538,5.77766 z"
         id="path1952" /><path
         style="fill:none;stroke:#8f8f8f;stroke-width:0.7;stroke-linecap:round;stroke-linejoin:bevel;stroke-dasharray:none;stroke-opacity:1"
         d="m 90.592798,113.10622 -0.856422,-4.89463 h 9.683377 z"
         id="path1954" /></g><g
       id="g3179"
       inkscape:label="heightmap-lines"
       style="stroke:#000000;stroke-width:1.2;stroke-linecap:round;stroke-linejoin:round;stroke-dasharray:none;stroke-opacity:1"><path
         style="fill:none;stroke:#000000;stroke-width:1.2;stroke-linecap:round;stroke-linejoin:round;stroke-dasharray:none;stroke-opacity:1"
         d="m 74.480812,127.04929 c 0,0 3.623674,-0.33401 4.934655,-1.97398 1.310984,-1.63997 -0.06811,-5.50734 -1.787697,-6.54761 -1.719583,-1.04027 -3.371064,-1.02804 -4.579887,-0.59969 -1.208826,0.42834 -2.043094,1.70116 -2.179294,2.65576"
         id="path3062"
         sodipodi:nodetypes="csssc" /><path
         style="fill:none;stroke:#000000;stroke-width:1.2;stroke-linecap:round;stroke-linejoin:round;stroke-dasharray:none;stroke-opacity:1"
         d="m 87.682378,130.49252 c 0,0 2.612465,-0.65644 3.940469,-3.28771 1.328002,-2.63128 1.43016,-2.80262 0.68103,-4.76078 -0.749131,-1.95817 -1.208826,-1.28505 -2.724108,-3.19426 -1.515282,-1.90921 -1.259888,-5.16466 -3.166763,-7.44102 -1.906876,-2.27636 -5.65253,-3.1086 -7.848828,-3.03516 -2.196296,0.0734 -4.118134,1.61436 -5.071563,2.50778"
         id="path3064"
         sodipodi:nodetypes="csssscc" /><path
         style="fill:none;stroke:#000000;stroke-width:1.2;stroke-linecap:round;stroke-linejoin:round;stroke-dasharray:none;stroke-opacity:1"
         d="m 88.895832,99.954583 c -0.306459,-0.02447 -1.835838,0.827257 -0.984565,2.528417 0.851273,1.70115 3.762674,3.87961 7.406153,5.04227 3.643479,1.16265 6.16327,3.95303 7.79773,6.3885 1.63446,2.43547 2.40061,6.74344 2.21334,8.9586 -0.18728,2.21517 -1.94094,2.70472 -1.80472,3.80618 0.13621,1.10147 1.64444,1.78001 1.59336,2.88148"
         id="path3066"
         sodipodi:nodetypes="csssssc" /><path
         style="fill:none;stroke:#000000;stroke-width:1.2;stroke-linecap:round;stroke-linejoin:round;stroke-dasharray:none;stroke-opacity:1"
         d="m 119.35995,118.03609 c -0.0936,-2.30696 -0.9279,-2.41711 -0.84277,-4.86481 0.0851,-2.44771 0.14472,-5.89897 -0.75764,-8.69547 -0.90236,-2.79651 -1.2003,-4.33856 -3.0561,-5.776586 -1.8558,-1.438027 -6.40164,-1.346238 -8.31703,-1.688915 -1.91538,-0.342681 -3.89886,-0.440592 -5.86533,-0.367157 -1.966462,0.07343 -3.932927,0.250888 -5.252412,0.654759 -1.319485,0.403873 -1.123696,1.223851 -0.706565,1.548175 0.417134,0.324321 0.570355,1.125947 1.668513,1.621604 1.098156,0.49566 3.1838,0.53238 4.758674,1.52982 1.57487,0.99743 7.15076,5.21973 10.01958,9.17889 2.86883,3.95916 3.12421,2.84545 4.07764,4.74854 0.95344,1.90309 1.24288,3.69604 2.1878,4.79139 1.00177,0.99727 1.64606,-0.593 1.84728,-1.8725 0.10215,-0.62416 0.23836,-0.80774 0.23836,-0.80774 z"
         id="path3068"
         sodipodi:nodetypes="csssssssssssccc" /><path
         style="fill:none;stroke:#000000;stroke-width:1.2;stroke-linecap:round;stroke-linejoin:round;stroke-dasharray:none;stroke-opacity:1"
         d="m 112.95831,101.3917 c -1.61743,-1.646081 -2.68154,-2.325319 -4.40113,-2.753669 -1.71959,-0.42835 -3.89036,-0.04895 -5.09918,-0.03671 -1.20882,0.01222 -1.97498,0.02447 -2.21333,0.226409 -0.23836,0.201938 0.11066,0.881177 1.77918,1.132068 1.66851,0.250882 2.96246,0.244762 4.15426,1.242202 1.19179,0.99744 2.36656,1.8725 3.24338,3.24321 0.87682,1.37071 1.12369,2.22129 1.77067,2.68023 0.64697,0.45895 1.72809,0.65477 2.00051,0.26925 0.27241,-0.38551 0.89385,-1.29116 0.50226,-2.49054 -0.3916,-1.19937 -1.73662,-3.51245 -1.73662,-3.51245 z"
         id="path3166" /><path
         style="fill:none;stroke:#000000;stroke-width:1.2;stroke-linecap:round;stroke-linejoin:round;stroke-dasharray:none;stroke-opacity:1"
         d="m 119.26303,96.02456 c 0,0 0.97373,0.838881 1.74841,1.35902 0.77466,0.520139 1.992,0.764908 2.78369,1.639964 0.79169,0.875057 2.20481,1.743986 2.85179,2.710836 0.64698,0.96684 1.19179,2.87605 1.26841,4.91376 0.0766,2.03772 -0.65548,7.53893 -0.50225,8.72607 0.15323,1.18714 0.16174,2.55173 1.17476,3.07799 1.01303,0.52626 0.94481,0.47661 0.94481,0.47661"
         id="path3168"
         sodipodi:nodetypes="cssssssc" /><path
         style="fill:none;stroke:#000000;stroke-width:1.2;stroke-linecap:round;stroke-linejoin:round;stroke-dasharray:none;stroke-opacity:1"
         d="m 134.24036,112.97546 c 0,0 -0.55334,0.18358 -1.42165,-0.61805 -0.8683,-0.80162 -2.11968,-3.42066 -2.13671,-4.45482 -0.017,-1.03415 0.16174,-4.35691 -0.17026,-5.32375 -0.332,-0.96685 -1.63482,-2.50655 -1.63482,-3.173549"
         id="path3170"
         sodipodi:nodetypes="csssc" /></g></g></svg>
