<?xml version="1.0" encoding="UTF-8" standalone="no"?>
<!-- Created with Inkscape (http://www.inkscape.org/) -->

<svg
   width="152.85629mm"
   height="131.61827mm"
   viewBox="0 0 152.85629 131.61827"
   version="1.1"
   id="svg5"
   xml:space="preserve"
   inkscape:version="1.2.2 (732a01da63, 2022-12-09, custom)"
   sodipodi:docname="point-ommatidial-frusta-diagram-svg-pass.svg"
   xmlns:inkscape="http://www.inkscape.org/namespaces/inkscape"
   xmlns:sodipodi="http://sodipodi.sourceforge.net/DTD/sodipodi-0.dtd"
   xmlns="http://www.w3.org/2000/svg"
   xmlns:svg="http://www.w3.org/2000/svg"><sodipodi:namedview
     id="namedview7"
     pagecolor="#505050"
     bordercolor="#eeeeee"
     borderopacity="1"
     inkscape:showpageshadow="0"
     inkscape:pageopacity="0"
     inkscape:pagecheckerboard="0"
     inkscape:deskcolor="#505050"
     inkscape:document-units="mm"
     showgrid="false"
     inkscape:zoom="1.7852694"
     inkscape:cx="273.06803"
     inkscape:cy="226.57645"
     inkscape:window-width="2508"
     inkscape:window-height="1376"
     inkscape:window-x="1972"
     inkscape:window-y="904"
     inkscape:window-maximized="1"
     inkscape:current-layer="layer3" /><defs
     id="defs2" /><g
     inkscape:groupmode="layer"
     id="layer3"
     inkscape:label="fill"><path
       id="path3908-4"
       style="fill:#ffffff;stroke-width:1.40001;stroke-linecap:round;stroke-linejoin:round"
       d="M 101.95717 -81.568883 A 14.268798 6.7942424 0 0 0 99.879893 -78.038589 A 14.268798 6.7942424 0 0 0 100.24731 -76.522472 L 107.83363 -45.180597 L 108.18846 -45.185928 A 5.6950259 2.9550034 1.5334154 0 0 113.56912 -42.903091 A 5.6950259 2.9550034 1.5334154 0 0 119.31686 -45.343629 L 119.61092 -45.347756 L 128.40511 -77.553078 L 128.37977 -77.553222 A 14.268798 6.7942424 0 0 0 128.41741 -78.038501 A 14.268798 6.7942424 0 0 0 114.14885 -84.832862 A 14.268798 6.7942424 0 0 0 101.95717 -81.568883 z M 14.563221 -3.4922205 A 15.12607 7.5361716 72.108985 0 0 13.526954 12.553213 A 15.12607 7.5361716 72.108985 0 0 25.374782 24.434273 A 15.12607 7.5361716 72.108985 0 0 26.106425 24.086168 L 26.116758 24.117765 L 55.556898 6.8759649 L 55.516489 6.7228582 A 6.2076703 3.354419 73.882152 0 0 56.971524 -0.15050724 A 6.2076703 3.354419 73.882152 0 0 52.34551 -5.2486848 L 52.295619 -5.438073 L 17.371768 -4.5034864 A 15.12607 7.5361716 72.108985 0 0 16.815661 -4.4884962 L 16.665661 -4.4843631 L 16.670702 -4.469129 A 15.12607 7.5361716 72.108985 0 0 15.912182 -4.2983952 A 15.12607 7.5361716 72.108985 0 0 14.563221 -3.4922205 z M 137.84798 -40.807295 A 15.530111 11.872984 57.965737 0 0 136.44662 -39.316114 L 136.41816 -39.364347 L 122.98092 -19.683191 A 6.2906312 5.1503543 55.908488 0 0 122.73045 -11.983535 A 6.2906312 5.1503543 55.908488 0 0 128.59245 -8.9493229 L 128.64378 -8.8556593 L 151.45496 -13.836167 L 151.42086 -13.893821 A 15.530111 11.872984 57.965737 0 0 156.43124 -16.016255 A 15.530111 11.872984 57.965737 0 0 156.241 -36.115304 A 15.530111 11.872984 57.965737 0 0 137.84798 -40.807295 z M 112.16822 4.8905185 A 4.9993191 6.3954943 38.755682 0 0 111.17758 5.8210451 A 4.9993191 6.3954943 38.755682 0 0 109.8647 13.239361 L 122.18612 35.586662 L 122.2105 35.556948 A 11.801863 15.856208 37.223283 0 0 123.50594 37.435149 A 11.801863 15.856208 37.223283 0 0 142.27717 34.798969 A 11.801863 15.856208 37.223283 0 0 145.155 14.456304 A 11.801863 15.856208 37.223283 0 0 141.48287 12.016722 L 141.50941 11.983933 L 118.36501 3.90872 L 118.29649 3.9814612 A 4.9993191 6.3954943 38.755682 0 0 112.16822 4.8905185 z M 147.41352 -7.8206941 L 147.43035 -7.6385219 A 5.7421186 2.4862946 85.604708 0 0 145.5328 -1.7856802 A 5.7421186 2.4862946 85.604708 0 0 148.4368 3.7918015 A 5.7421186 2.4862946 85.604708 0 0 148.4726 3.7868201 L 148.49422 4.025711 L 180.70105 10.2881 A 13.888822 4.9408871 86.929047 0 0 181.76501 10.550871 A 13.888822 4.9408871 86.929047 0 0 185.95022 -3.5933679 A 13.888822 4.9408871 86.929047 0 0 180.26915 -17.186431 A 13.888822 4.9408871 86.929047 0 0 179.6216 -17.026216 L 179.61672 -17.124822 L 147.41352 -7.8206941 z M 96.848896 36.439341 A 3.6045243 6.2822923 83.933652 0 0 95.409107 38.761393 L 88.877048 71.32443 L 89.025993 71.309164 A 8.2396741 14.889542 84.593451 0 0 89.032401 72.115084 A 8.2396741 14.889542 84.593451 0 0 104.72873 78.848621 A 8.2396741 14.889542 84.593451 0 0 118.66756 69.195517 A 8.2396741 14.889542 84.593451 0 0 118.46862 68.289622 L 118.59047 68.276962 L 107.93158 37.869575 L 107.91642 37.870522 A 3.6045243 6.2822923 83.933652 0 0 107.91133 37.756098 A 3.6045243 6.2822923 83.933652 0 0 101.3002 34.823094 A 3.6045243 6.2822923 83.933652 0 0 96.848896 36.439341 z "
       transform="matrix(0.77843923,0.62771997,-0.63072836,0.77600369,0,0)" /></g><g
     inkscape:label="lineart"
     inkscape:groupmode="layer"
     id="layer1"
     transform="translate(-21.007893,-25.855147)"
     style="display:inline"><path
       style="fill:none;stroke:#000000;stroke-width:1.5;stroke-linecap:butt;stroke-linejoin:miter;stroke-dasharray:none;stroke-opacity:1"
       d="M 36.809679,32.836699 65.14684,54.462124"
       id="path397"
       sodipodi:nodetypes="cc" /><path
       style="fill:none;stroke:#000000;stroke-width:1.5;stroke-linecap:butt;stroke-linejoin:miter;stroke-dasharray:none;stroke-opacity:1"
       d="m 26.126653,60.964576 33.79208,5.100283"
       id="path397-3"
       sodipodi:nodetypes="cc" /><path
       style="fill:none;stroke:#000000;stroke-width:1.4;stroke-linecap:round;stroke-linejoin:miter;stroke-dasharray:none;stroke-opacity:1"
       d="M 169.87827,46.275994 142.71965,65.747531"
       id="path397-6"
       sodipodi:nodetypes="cc" /><path
       style="fill:none;stroke:#000000;stroke-width:1.4;stroke-linecap:round;stroke-linejoin:miter;stroke-dasharray:none;stroke-opacity:1"
       d="M 147.8266,28.314788 133.44661,58.484216"
       id="path397-3-7"
       sodipodi:nodetypes="cc" /><path
       style="fill:none;stroke:#000000;stroke-width:1.7;stroke-linecap:round;stroke-linejoin:miter;stroke-dasharray:none;stroke-opacity:1"
       d="M 147.63323,110.18967 126.73493,99.735228"
       id="path397-6-5"
       sodipodi:nodetypes="cc" /><path
       style="fill:none;stroke:#000000;stroke-width:1.7;stroke-linecap:round;stroke-linejoin:miter;stroke-dasharray:none;stroke-opacity:1"
       d="m 152.02912,80.940598 -23.14592,6.91957"
       id="path397-3-7-3"
       sodipodi:nodetypes="cc" /><path
       style="fill:none;stroke:#000000;stroke-width:1.5;stroke-linecap:round;stroke-linejoin:miter;stroke-dasharray:none;stroke-opacity:1"
       d="M 155.37033,147.48938 134.06232,122.19165"
       id="path397-6-5-5"
       sodipodi:nodetypes="cc" /><path
       style="fill:none;stroke:#000000;stroke-width:1.5;stroke-linecap:round;stroke-linejoin:miter;stroke-dasharray:none;stroke-opacity:1"
       d="M 171.62986,125.3153 140.69291,112.32082"
       id="path397-3-7-3-6"
       sodipodi:nodetypes="cc" /><path
       style="fill:none;stroke:#000000;stroke-width:1.7;stroke-linecap:round;stroke-linejoin:miter;stroke-dasharray:none;stroke-opacity:1"
       d="M 93.676663,130.16924 98.218238,104.8841"
       id="path397-6-5-5-2"
       sodipodi:nodetypes="cc" /><path
       style="fill:none;stroke:#000000;stroke-width:1.7;stroke-linecap:round;stroke-linejoin:miter;stroke-dasharray:none;stroke-opacity:1"
       d="M 123.60581,123.98278 110.68263,103.18847"
       id="path397-3-7-3-6-9"
       sodipodi:nodetypes="cc" /><path
       style="fill:none;stroke:#000000;stroke-width:1.6;stroke-linecap:round;stroke-linejoin:miter;stroke-dasharray:none;stroke-opacity:1"
       d="M 45.207184,136.99307 70.937429,115.73561"
       id="path397-6-5-5-2-1"
       sodipodi:nodetypes="cc" /><path
       style="fill:none;stroke:#000000;stroke-width:1.6;stroke-linecap:round;stroke-linejoin:miter;stroke-dasharray:none;stroke-opacity:1"
       d="M 70.259101,153.27974 81.140836,122.99271"
       id="path397-3-7-3-6-9-2"
       sodipodi:nodetypes="cc" /><path
       style="fill:none;stroke:#000000;stroke-width:1.5;stroke-linecap:round;stroke-linejoin:round;stroke-dasharray:1.5, 3;stroke-dashoffset:0;stroke-opacity:1"
       d="m 65.14684,54.462124 18.115192,14.660768 -23.3433,-3.058033"
       id="path2012"
       sodipodi:nodetypes="ccc" /><path
       style="fill:none;stroke:#000000;stroke-width:1.4;stroke-linecap:round;stroke-linejoin:round;stroke-dasharray:1.4, 2.8;stroke-dashoffset:0;stroke-opacity:1"
       d="m 133.44661,58.484216 -8.75579,20.039337 18.02883,-12.776022"
       id="path2014"
       sodipodi:nodetypes="ccc" /><path
       style="fill:none;stroke:#000000;stroke-width:1.7;stroke-linecap:round;stroke-linejoin:round;stroke-dasharray:1.7, 3.4;stroke-dashoffset:0;stroke-opacity:1"
       d="m 128.8832,87.860168 -15.46496,4.770017 13.31669,7.105041"
       id="path2016" /><path
       style="fill:none;stroke:#000000;stroke-width:1.5;stroke-linecap:round;stroke-linejoin:round;stroke-dasharray:1.5, 3;stroke-dashoffset:0;stroke-opacity:1"
       d="m 140.69291,112.32082 -21.76881,-8.53626 15.13822,18.40708"
       id="path2018"
       sodipodi:nodetypes="ccc" /><path
       style="fill:none;stroke:#000000;stroke-width:1.7;stroke-linecap:round;stroke-linejoin:round;stroke-dasharray:1.7, 3.4;stroke-dashoffset:0;stroke-opacity:1"
       d="M 110.68263,103.18847 101.34216,88.710166 98.218237,104.8841"
       id="path2020" /><path
       style="fill:none;stroke:#000000;stroke-width:1.6;stroke-linecap:round;stroke-linejoin:round;stroke-dasharray:1.6, 3.2;stroke-dashoffset:0;stroke-opacity:1"
       d="m 81.140836,122.99271 7.003666,-20.79686 -17.207073,13.53976"
       id="path2022"
       sodipodi:nodetypes="ccc" /><ellipse
       style="fill:none;stroke:#000000;stroke-width:1.40001;stroke-linecap:round;stroke-linejoin:round;stroke-dasharray:none;stroke-opacity:1"
       id="path3908"
       transform="matrix(0.77843923,0.62771997,-0.63072836,0.77600369,0,0)"
       ry="6.7942424"
       rx="14.268798"
       cy="-71.099144"
       cx="146.75871" /><ellipse
       style="fill:none;stroke:#000000;stroke-width:1.4;stroke-linecap:round;stroke-linejoin:round;stroke-dasharray:none;stroke-opacity:1"
       id="path3908-2-79"
       transform="matrix(-0.39083064,0.92046261,-0.92112987,-0.3892554,0,0)"
       ry="3.3578615"
       rx="6.2012687"
       cy="-80.924622"
       cx="31.172716" /><ellipse
       style="fill:none;stroke:#000000;stroke-width:1.60018;stroke-linecap:round;stroke-linejoin:round;stroke-dasharray:none;stroke-opacity:1"
       id="path3908-2-79-2"
       transform="matrix(-0.35598029,0.93449346,-0.94173517,-0.33635528,0,0)"
       ry="7.546845"
       rx="15.10787"
       cy="-45.32243"
       cx="33.581451" /><ellipse
       style="fill:none;stroke:#000000;stroke-width:1.40002;stroke-linecap:round;stroke-linejoin:round;stroke-dasharray:none;stroke-opacity:1"
       id="path3908-2-61"
       transform="matrix(0.83949282,0.54337078,-0.54938019,0.8355725,0,0)"
       ry="3.6031575"
       rx="6.28479"
       cy="59.048546"
       cx="129.07869" /><ellipse
       style="fill:none;stroke:#000000;stroke-width:1.80001;stroke-linecap:round;stroke-linejoin:round;stroke-dasharray:none;stroke-opacity:1"
       id="path3908-2-61-8"
       transform="matrix(0.83620471,0.54841743,-0.54433219,0.83886976,0,0)"
       ry="8.2367373"
       rx="14.894916"
       cy="90.564606"
       cx="127.45895" /><ellipse
       style="fill:none;stroke:#000000;stroke-width:1.70299;stroke-linecap:round;stroke-linejoin:round;stroke-dasharray:none;stroke-opacity:1"
       id="path3908-2-2"
       transform="matrix(0.99096654,-0.13410932,0.05069523,0.99871417,0,0)"
       ry="11.873605"
       rx="15.815782"
       cy="144.28644"
       cx="102.82553" /><ellipse
       style="fill:none;stroke:#000000;stroke-width:1.60049;stroke-linecap:round;stroke-linejoin:round;stroke-dasharray:none;stroke-opacity:1"
       id="path3908-2-06"
       transform="matrix(0.98758615,-0.1570783,0.12228122,0.99249549,0,0)"
       ry="4.9977274"
       rx="6.4014359"
       cy="120.3037"
       cx="90.910202" /><ellipse
       style="fill:none;stroke:#000000;stroke-width:1.40003;stroke-linecap:round;stroke-linejoin:round;stroke-dasharray:none;stroke-opacity:1"
       id="path3908-2-6"
       transform="matrix(0.57199836,-0.82025477,0.81452324,0.58013093,0,0)"
       ry="2.487159"
       rx="5.7403641"
       cy="179.82774"
       cx="-15.7784" /><ellipse
       style="fill:none;stroke:#000000;stroke-width:1.50001;stroke-linecap:round;stroke-linejoin:round;stroke-dasharray:none;stroke-opacity:1"
       id="path3908-2-3"
       transform="matrix(-0.58801311,0.80885139,-0.81224529,-0.58331603,0,0)"
       ry="4.9419632"
       rx="13.885927"
       cy="-213.16841"
       cx="15.533426" /><ellipse
       style="fill:none;stroke:#000000;stroke-width:1.8;stroke-linecap:round;stroke-linejoin:round;stroke-dasharray:none;stroke-opacity:1"
       id="path3908-2-9"
       transform="matrix(-0.08672727,0.99623209,-0.99633244,-0.08556676,0,0)"
       ry="5.1595941"
       rx="6.2793231"
       cy="-136.91397"
       cx="82.633926" /><ellipse
       style="fill:none;stroke:#000000;stroke-width:1.70153;stroke-linecap:round;stroke-linejoin:round;stroke-dasharray:none;stroke-opacity:1"
       id="path3908-2-0"
       transform="matrix(-0.03785572,0.99928322,-0.99975446,0.02215909,0,0)"
       ry="11.946348"
       rx="15.462471"
       cy="-157.28114"
       cx="99.726639" /><ellipse
       style="fill:none;stroke:#000000;stroke-width:1.40005;stroke-linecap:round;stroke-linejoin:round;stroke-dasharray:none;stroke-opacity:1"
       id="path3908-2-7"
       transform="matrix(0.75952432,0.6504789,-0.65919784,0.75196955,0,0)"
       ry="2.9555483"
       rx="5.6943121"
       cy="-43.235077"
       cx="144.72549" /><circle
       style="fill:#000000;fill-opacity:1;stroke:none;stroke-width:1.2;stroke-linecap:round;stroke-linejoin:round"
       id="path4236"
       cx="83.260597"
       cy="68.987717"
       r="1.7962626" /><circle
       style="fill:#000000;fill-opacity:1;stroke:none;stroke-width:1.2;stroke-linecap:round;stroke-linejoin:round"
       id="path4236-0"
       cx="101.40483"
       cy="88.786316"
       r="1.7962626" /><circle
       style="fill:#000000;fill-opacity:1;stroke:none;stroke-width:1.2;stroke-linecap:round;stroke-linejoin:round"
       id="path4236-2"
       cx="88.183998"
       cy="102.10242"
       r="1.7962626" /><circle
       style="fill:#000000;fill-opacity:1;stroke:none;stroke-width:1.2;stroke-linecap:round;stroke-linejoin:round"
       id="path4236-3"
       cx="118.86459"
       cy="103.64301"
       r="1.7962626" /><circle
       style="fill:#000000;fill-opacity:1;stroke:none;stroke-width:1.2;stroke-linecap:round;stroke-linejoin:round"
       id="path4236-7"
       cx="113.44141"
       cy="92.639458"
       r="1.7962626" /><circle
       style="fill:#000000;fill-opacity:1;stroke:none;stroke-width:1.2;stroke-linecap:round;stroke-linejoin:round"
       id="path4236-5"
       cx="124.70695"
       cy="78.334831"
       r="1.7962626" /></g></svg>
