<?xml version="1.0" encoding="UTF-8" standalone="no"?>
<!-- Created with Inkscape (http://www.inkscape.org/) -->

<svg
   width="355.89551mm"
   height="150.10864mm"
   viewBox="0 0 355.89551 150.10864"
   version="1.1"
   id="svg1"
   xml:space="preserve"
   inkscape:version="1.3 (1:1.3+202307231459+0e150ed6c4)"
   sodipodi:docname="spherical-representation.svg"
   inkscape:export-filename="spherical-representation.png"
   inkscape:export-xdpi="106.6"
   inkscape:export-ydpi="106.6"
   xmlns:inkscape="http://www.inkscape.org/namespaces/inkscape"
   xmlns:sodipodi="http://sodipodi.sourceforge.net/DTD/sodipodi-0.dtd"
   xmlns="http://www.w3.org/2000/svg"
   xmlns:svg="http://www.w3.org/2000/svg"><sodipodi:namedview
     id="namedview1"
     pagecolor="#ffffff"
     bordercolor="#eeeeee"
     borderopacity="1"
     inkscape:showpageshadow="0"
     inkscape:pageopacity="0"
     inkscape:pagecheckerboard="0"
     inkscape:deskcolor="#d1d1d1"
     inkscape:document-units="mm"
     inkscape:zoom="1.0476431"
     inkscape:cx="614.2359"
     inkscape:cy="239.58541"
     inkscape:window-width="2512"
     inkscape:window-height="1376"
     inkscape:window-x="1968"
     inkscape:window-y="268"
     inkscape:window-maximized="1"
     inkscape:current-layer="layer1" /><defs
     id="defs1"><marker
       style="overflow:visible"
       id="marker15"
       refX="0"
       refY="0"
       orient="auto-start-reverse"
       inkscape:stockid="Stylized triangle arrow"
       markerWidth="1"
       markerHeight="1"
       viewBox="0 0 1 1"
       inkscape:isstock="true"
       inkscape:collect="always"
       preserveAspectRatio="xMidYMid"><path
         transform="scale(0.5)"
         style="fill:context-stroke;fill-rule:evenodd;stroke:context-stroke;stroke-width:1pt"
         d="m 6,0 c -3,1 -7,3 -9,5 0,0 0,-4 2,-5 -2,-1 -2,-5 -2,-5 2,2 6,4 9,5 z"
         id="path15" /></marker><marker
       style="overflow:visible"
       id="ArrowTriangleStylized"
       refX="0"
       refY="0"
       orient="auto-start-reverse"
       inkscape:stockid="Stylized triangle arrow"
       markerWidth="1"
       markerHeight="1"
       viewBox="0 0 1 1"
       inkscape:isstock="true"
       inkscape:collect="always"
       preserveAspectRatio="xMidYMid"><path
         transform="scale(0.5)"
         style="fill:context-stroke;fill-rule:evenodd;stroke:context-stroke;stroke-width:1pt"
         d="m 6,0 c -3,1 -7,3 -9,5 0,0 0,-4 2,-5 -2,-1 -2,-5 -2,-5 2,2 6,4 9,5 z"
         id="path14" /></marker><marker
       style="overflow:visible"
       id="marker15-4"
       refX="0"
       refY="0"
       orient="auto-start-reverse"
       inkscape:stockid="Stylized triangle arrow"
       markerWidth="1"
       markerHeight="1"
       viewBox="0 0 1 1"
       inkscape:isstock="true"
       inkscape:collect="always"
       preserveAspectRatio="xMidYMid"><path
         transform="scale(0.5)"
         style="fill:context-stroke;fill-rule:evenodd;stroke:context-stroke;stroke-width:1pt"
         d="m 6,0 c -3,1 -7,3 -9,5 0,0 0,-4 2,-5 -2,-1 -2,-5 -2,-5 2,2 6,4 9,5 z"
         id="path15-9" /></marker><marker
       style="overflow:visible"
       id="ArrowTriangleStylized-2"
       refX="0"
       refY="0"
       orient="auto-start-reverse"
       inkscape:stockid="Stylized triangle arrow"
       markerWidth="1"
       markerHeight="1"
       viewBox="0 0 1 1"
       inkscape:isstock="true"
       inkscape:collect="always"
       preserveAspectRatio="xMidYMid"><path
         transform="scale(0.5)"
         style="fill:context-stroke;fill-rule:evenodd;stroke:context-stroke;stroke-width:1pt"
         d="m 6,0 c -3,1 -7,3 -9,5 0,0 0,-4 2,-5 -2,-1 -2,-5 -2,-5 2,2 6,4 9,5 z"
         id="path14-0" /></marker></defs><g
     inkscape:label="Layer 1"
     inkscape:groupmode="layer"
     id="layer1"
     transform="translate(87.507524,-63.49781)"><g
       id="g1"
       transform="translate(-88.036691,62.968643)"
       inkscape:label="sphere"><g
         inkscape:label="Layer 1"
         id="layer1-4"
         transform="translate(-1.485705,-1.594415)" /><g
         id="layer2"
         inkscape:label="actual_map"
         transform="translate(-1.485705,-1.594415)"><g
           id="g2708"
           transform="translate(-36.364213,-81.416312)"><circle
             style="fill:#fcfcfc;fill-opacity:1;stroke:#000000;stroke-width:1.6;stroke-linecap:round;stroke-linejoin:round;stroke-opacity:1"
             id="path431"
             cx="104.11457"
             cy="148.0555"
             r="55.109303" /><g
             id="g2674"><path
               style="fill:none;stroke:#000000;stroke-width:1.065;stroke-linecap:round;stroke-linejoin:miter;stroke-dasharray:1.065, 4.26;stroke-dashoffset:0;stroke-opacity:1"
               d="m 49.093106,148.30348 c 0,0 0.14169,7.79062 8.423754,13.01204 8.282061,5.22141 26.139915,12.8598 51.36103,11.66061 25.22111,-1.19919 38.92412,-8.33159 45.04039,-13.5268 3.58351,-3.04386 5.1973,-6.93569 5.23333,-9.73848"
               id="path1148"
               sodipodi:nodetypes="csssc" /><path
               style="fill:none;stroke:#000000;stroke-width:1.065;stroke-linecap:round;stroke-linejoin:miter;stroke-dasharray:1.065, 4.26;stroke-dashoffset:0;stroke-opacity:1"
               d="m 126.84266,97.747163 c 0,0 -11.46173,-3.764487 -24.47007,2.554907 -13.008335,6.31939 -24.925604,20.69147 -31.393492,34.29939 -6.46789,13.60792 -7.131024,32.07265 -5.804678,39.75686 1.326348,7.68421 3.353517,10.9364 4.953032,13.88945 1.599517,2.95305 7.183742,7.84165 9.715805,9.18071"
               id="path1177"
               sodipodi:nodetypes="cssssc" /><path
               style="fill:none;stroke:#000000;stroke-width:1.065;stroke-linecap:round;stroke-linejoin:miter;stroke-dasharray:1.065, 4.26;stroke-dashoffset:0;stroke-opacity:1"
               d="m 82.026459,98.200533 c 0,0 10.153895,-4.834712 23.162241,1.484685 13.00833,6.319392 22.40338,18.443002 29.64132,33.978802 7.97864,17.12569 8.11746,33.39411 6.79112,41.07832 -1.32635,7.68421 -2.51677,10.06608 -4.61966,13.81535 -2.39582,4.27151 -3.21484,6.48101 -8.87363,9.14762"
               id="path1177-7"
               sodipodi:nodetypes="cssssc" /></g><g
             id="g2680"><path
               style="fill:none;stroke:#000000;stroke-width:2.165;stroke-linecap:round;stroke-linejoin:miter;stroke-dasharray:none;stroke-opacity:1"
               d="M 63.935577,165.61529 39.461585,176.02773"
               id="path465"
               sodipodi:nodetypes="cc" /><path
               style="fill:none;stroke:#000000;stroke-width:2.165;stroke-linecap:round;stroke-linejoin:miter;stroke-dasharray:none;stroke-opacity:1"
               d="m 142.68069,166.75416 25.73634,12.04353"
               id="path467"
               sodipodi:nodetypes="cc" /><path
               style="fill:none;stroke:#000000;stroke-width:2.165;stroke-linecap:round;stroke-linejoin:miter;stroke-dasharray:none;stroke-opacity:1"
               d="M 104.53013,98.711999 V 84.622394"
               id="path469" /><path
               style="fill:none;stroke:#000000;stroke-width:2.165;stroke-linecap:round;stroke-linejoin:miter;stroke-dasharray:none;stroke-opacity:1"
               d="M 104.40169,217.81157 V 203.91156"
               id="path469-3" /></g><g
             id="g2669"
             style="stroke-width:0.8;stroke-dasharray:none"><path
               style="fill:none;stroke:#000000;stroke-width:0.8;stroke-linecap:butt;stroke-linejoin:miter;stroke-dasharray:none;stroke-opacity:1"
               d="m 157.54255,134.54674 c 0,0 -0.52875,1.0023 -1.3095,0.63682 -0.78075,-0.36547 -1.71195,-0.72395 -1.97394,-0.05 -0.26199,0.67396 0.45908,3.26058 0.0829,3.87709 -0.37623,0.6165 -0.99764,1.82562 -1.92327,1.1991 -0.92564,-0.62653 -2.27046,-5.00746 -2.12786,-5.49268 0.1426,-0.48522 1.20044,-3.37669 1.3728,-4.59258 0.17235,-1.2159 -0.24966,-2.74997 -0.1389,-4.87056 0.11075,-2.1206 -0.57714,-3.12496 0.45307,-4.5141"
               id="path1102" /><path
               style="fill:none;stroke:#000000;stroke-width:0.8;stroke-linecap:butt;stroke-linejoin:miter;stroke-dasharray:none;stroke-opacity:1"
               d="m 97.094993,156.63722 c 0.05393,-0.068 0.968143,-1.12077 0.398559,-1.62888 -0.569585,-0.50812 -2.503162,-1.37214 -3.945411,-1.16255 -1.442247,0.20959 -4.272704,0.26028 -4.328401,0.86425 -0.0557,0.60398 0.424119,3.54606 1.528709,4.31973 1.104591,0.77368 3.869743,1.13657 4.816806,0.54182 0.947063,-0.59475 1.449438,-0.40117 1.654474,-1.17951 0.205036,-0.77834 -0.263435,-0.91033 -0.419034,-1.06602 -0.155597,-0.15569 0.208192,-0.58033 0.294298,-0.68884 z"
               id="path1104"
               sodipodi:nodetypes="ssssssszs" /><path
               style="fill:none;stroke:#000000;stroke-width:0.8;stroke-linecap:butt;stroke-linejoin:miter;stroke-dasharray:none;stroke-opacity:1"
               d="m 145.56323,111.79353 c 0.88261,5.57103 0.31448,4.64043 -1.26082,7.07872 -1.5753,2.4383 -5.10362,6.93098 -6.63124,9.3238 -1.52763,2.39283 -2.79849,6.12155 -5.84019,7.63105 -3.0417,1.5095 -3.19878,0.0662 -6.01449,1.29831 -2.81571,1.23212 -4.77473,2.45706 -7.28774,4.81104 -2.513,2.35399 -3.1607,4.10737 -5.36811,4.3095 -2.2074,0.20214 -6.90474,-1.80632 -10.91563,-2.74779 -4.010887,-0.94148 -9.111662,-1.86624 -14.150855,-0.90943 -5.039193,0.95681 -12.925735,4.15859 -14.380832,5.91127 -1.4551,1.75268 -3.985704,9.63713 2.247567,14.94069 6.233271,5.30356 14.66298,8.89426 21.851043,7.63862 7.188067,-1.25564 12.462897,-2.9761 14.833637,-4.42377 2.37073,-1.44766 5.55642,-3.0579 7.27346,-3.09544 1.71704,-0.0375 3.89042,1.71098 6.35244,2.452 2.46202,0.74102 9.81136,0.48934 12.43736,0.27256 2.626,-0.21677 10.63064,-3.33483 11.93525,-4.40209 1.30462,-1.06726 5.60315,-4.18662 7.01548,-6.96179 1.41232,-2.77517 1.63593,-3.89682 1.63593,-3.89682"
               id="path1204" /><path
               style="fill:none;stroke:#000000;stroke-width:0.8;stroke-linecap:butt;stroke-linejoin:miter;stroke-dasharray:none;stroke-opacity:1"
               d="m 138.80853,105.23769 c 0,0 2.36281,3.35984 1.89889,5.725 -0.46391,2.36516 -3.26798,5.66556 -5.68559,8.9611 -2.41761,3.29554 -4.30965,6.96145 -7.59198,8.15059 -3.28233,1.18914 -3.73838,-0.13622 -6.32698,1.18914 -2.58861,1.32536 -6.99522,5.49828 -10.06158,6.18218 -3.06636,0.68389 -13.367144,-2.86197 -21.244044,-1.6492 -7.876897,1.21277 -15.990916,1.33249 -20.289274,5.2658 -4.298357,3.93332 -8.388138,10.32621 -7.530359,15.95111 0.857779,5.62491 5.127334,14.16444 12.395137,18.29477 7.267799,4.13033 18.037833,6.43312 27.39091,5.2302 9.35307,-1.20292 14.46913,-4.232 17.05225,-4.22686 2.58313,0.005 6.43588,3.44548 10.14931,3.4464 3.71343,8e-4 7.53776,-4.01075 9.67029,-4.36373 2.13252,-0.35297 5.9668,1.77015 9.15435,-0.63203 3.18756,-2.40219 6.23334,-5.20406 9.8697,-11.91259"
               id="path1206" /><path
               style="fill:none;stroke:#000000;stroke-width:0.8;stroke-linecap:butt;stroke-linejoin:miter;stroke-dasharray:none;stroke-opacity:1"
               d="m 122.87252,96.236826 c 0,0 6.1507,3.782034 6.45675,6.700524 0.30605,2.9185 0.41878,8.1055 -6.75671,13.09095 -7.17548,4.98544 -10.93806,5.01155 -22.21396,4.63272 -11.275901,-0.37882 -16.667353,-2.94213 -21.502983,-5.91516 -4.835631,-2.97303 -8.574871,-5.14421 -9.446948,-6.96036 -0.872077,-1.81614 1.584944,-3.77586 1.584944,-3.77586"
               id="path1208" /><path
               style="fill:none;stroke:#000000;stroke-width:0.8;stroke-linecap:butt;stroke-linejoin:miter;stroke-dasharray:none;stroke-opacity:1"
               d="m 148.03979,114.77471 c 1.59656,7.14488 1.59656,6.8136 0.53758,8.76762 -1.05897,1.95402 -5.93427,8.63111 -7.16558,12.07212 -1.23131,3.441 -6.16557,8.05363 -7.46527,10.46959 -1.29969,2.41596 -3.09879,6.87753 -1.06776,8.00503 2.03103,1.12751 9.12655,2.68319 13.68048,1.50024 4.55393,-1.18295 8.38406,-3.58907 10.51497,-6.28042 2.1309,-2.69136 2.08905,-3.83746 2.08905,-3.83746"
               id="path1202" /></g></g></g></g><g
       id="g13"
       inkscape:label="map"
       transform="matrix(1,0,0,0.88775345,-5.6914011,-66.885798)"
       style="stroke-width:1.06133"><rect
         style="fill:#fcfcfc;stroke:#000000;stroke-width:1.76712818;stroke-linecap:round;stroke-linejoin:round;stroke-dasharray:none;stroke-opacity:1;fill-opacity:1"
         id="rect1"
         width="180.84972"
         height="135.35417"
         x="92.346107"
         y="152.52283"
         inkscape:label="projection-bg" /><g
         id="g3"
         style="stroke-width:1.06133;stroke-dasharray:none"
         inkscape:label="contours"><path
           style="fill:none;stroke:#000000;stroke-width:1.06133;stroke-linecap:butt;stroke-linejoin:miter;stroke-dasharray:none;stroke-opacity:1"
           d="m 91.846108,164.21671 c 15.706652,0 52.466942,10.52383 67.064162,10.52383 14.59721,0 44.51513,-0.82001 58.32738,-2.20183 13.81225,-1.38181 44.54473,-8.37005 56.1389,-8.14431"
           id="path4" /><path
           style="fill:none;stroke:#000000;stroke-width:1.06133;stroke-linecap:butt;stroke-linejoin:miter;stroke-dasharray:none;stroke-opacity:1"
           d="m 155.9462,206.16908 c -0.58125,0.71437 0.63298,0.38154 0.21041,1.35634 -0.42256,0.9748 -2.86576,1.74376 -3.79532,1.58039 -0.92955,-0.16336 -2.53139,-1.88949 -3.11197,-3.31221 -0.58059,-1.42273 0.7677,-4.02951 1.61816,-4.02951 0.85047,0 3.66686,-0.12416 4.48418,0.33342 0.81731,0.45758 2.20535,0.54062 2.28603,2.12797 0.0674,1.12017 -1.22111,0.14291 -1.69149,1.9436 z"
           id="path5"
           sodipodi:nodetypes="cssssscc" /><path
           style="fill:none;stroke:#000000;stroke-width:1.06133;stroke-linecap:butt;stroke-linejoin:miter;stroke-dasharray:none;stroke-opacity:1"
           d="m 272.85657,208.92012 c 0,0 -8.38795,2.25497 -14.44032,2.36756 -10.47181,0.53574 -71.30145,-0.6297 -77.05438,-2.82501 -5.75293,-2.19531 -5.59381,-3.74496 -5.4227,-5.56501 0.1711,-1.82005 11.15118,-7.92344 14.77745,-8.26424 3.62627,-0.3408 7.46844,-4.46731 13.86601,-4.64365 6.39759,-0.17635 17.33173,-5.07612 22.6246,-5.43105 5.29288,-0.35492 21.17275,-0.36833 26.77332,1.07374 5.60056,1.44208 13.1336,3.87167 15.85614,5.54466 2.72253,1.673 3.24005,2.67521 3.24005,2.67521"
           id="path6"
           sodipodi:nodetypes="ccsssssssc" /><path
           style="fill:none;stroke:#000000;stroke-width:1.06133;stroke-linecap:butt;stroke-linejoin:miter;stroke-dasharray:none;stroke-opacity:1"
           d="m 204.35626,203.21926 c 0.53086,-2.95966 2.98969,-7.6255 6.13033,-8.35448 3.14064,-0.72897 9.37888,-6.03366 12.22933,-6.03366 2.85044,0 5.38523,-1.04911 9.76128,0.42391 4.37605,1.47302 11.30834,1.89008 13.2787,3.43232 1.97036,1.54224 7.64273,4.8824 6.94663,6.75638 -0.69609,1.87399 -1.76993,4.63557 -6.2232,4.99273 -4.45326,0.35716 -9.24259,0.19113 -12.01459,-0.12234 -2.77202,-0.31348 -8.8552,-3.21514 -10.97536,-2.85798 -2.12017,0.35717 -4.80195,2.32086 -5.94293,2.32086 -1.14098,0 -3.31037,-3.11595 -5.68977,-2.93961 -2.3794,0.17633 -2.50746,3.46036 -4.2311,3.46036 -1.72363,0 -3.02351,1.31463 -3.26932,-1.07849 z"
           id="path7"
           sodipodi:nodetypes="csssssssssssc" /><path
           style="fill:none;stroke:#000000;stroke-width:1.06133;stroke-linecap:butt;stroke-linejoin:miter;stroke-dasharray:none;stroke-opacity:1"
           d="m 273.66884,235.71048 c 0,0 -4.07207,2.29862 -11.9574,2.65353 -7.88531,0.35492 -15.19133,0.0469 -23.54328,-3.42741 -8.35196,-3.47425 -21.76494,-9.08454 -27.43919,-9.08454 -5.67425,0 -17.35509,-0.36106 -27.32628,2.24123 -9.97118,2.6023 -6.7161,-1.28068 -9.89271,-0.89324 -3.1766,0.38744 -2.94408,2.65169 -6.77322,2.54841 -4.36601,-0.11776 -2.80716,-6.02888 -6.53633,-7.80243 -2.20437,-1.04838 -9.20268,3.29209 -16.65425,0.82627 -5.1544,-1.70565 -11.7534,-9.30576 -12.30383,-13.50582 -0.51218,-3.90825 -0.17506,-7.45604 1.49887,-12.04768 2.11602,-5.80428 5.39247,-8.49397 10.79101,-10.79076 5.88073,-2.50194 8.80943,-3.40954 12.08514,-2.52856 4.06485,1.09323 5.34199,2.66575 8.74208,2.34496 3.61107,-0.34069 8.45803,-6.19515 11.12431,-6.48782 2.66628,-0.29266 5.94164,1.96278 9.27991,2.053 3.33827,0.0902 24.51057,-3.2196 27.71198,-4.1125 3.20142,-0.89291 20.84985,-4.20429 27.06756,-4.99234 6.2177,-0.78806 20.21522,-2.58279 26.76616,-2.163 6.55092,0.41979 7.39137,0.30626 7.39137,0.30626"
           id="path9"
           sodipodi:nodetypes="cssscssssssssssssssc" /><path
           style="fill:none;stroke:#000000;stroke-width:1.06133;stroke-linecap:butt;stroke-linejoin:miter;stroke-dasharray:none;stroke-opacity:1"
           d="m 273.29921,222.64489 c -30.09855,0.25632 -84.37723,-2.88267 -96.67743,-4.30433 -6.46552,-0.74728 -7.81644,-1.09736 -9.80615,-2.92408 -2.83104,-2.59913 -1.16993,-2.64464 -3.43127,-2.82322 -2.26134,-0.17858 -4.20453,2.03539 -9.62094,3.57691 -5.4164,1.54152 -12.95476,-2.18794 -14.02402,-6.32934 -1.06926,-4.1414 -1.38051,-8.2203 0.55401,-10.41499 1.93452,-2.1947 4.88346,-7.76418 12.63497,-7.52178 7.75151,0.24239 10.44103,5.59363 12.85714,5.67907 2.41611,0.0854 1.0765,-1.94168 4.52045,-5.21902 3.44396,-3.27734 1.08435,-2.9895 6.06059,-3.40961 3.01455,-0.25449 2.95842,0.57782 4.3449,0.55687 1.38648,-0.021 2.56866,0.88819 6.82508,-1.07173 4.25641,-1.95991 14.59396,-4.12416 21.51347,-4.8135 6.91952,-0.68934 15.12733,-5.66822 18.99119,-5.84457 3.86385,-0.17635 23.18517,-4.14955 29.90483,-3.01489 6.71966,1.13466 15.15982,3.98408 15.15982,3.98408"
           id="path8"
           sodipodi:nodetypes="csssssssssssssssc" /><path
           style="fill:none;stroke:#000000;stroke-width:1.06133;stroke-linecap:butt;stroke-linejoin:miter;stroke-dasharray:none;stroke-opacity:1"
           d="m 92.043836,209.94416 c 3.252772,-3.21371 7.21468,-4.59849 0.309158,-17.16698"
           id="path10" /><path
           style="fill:none;stroke:#000000;stroke-width:1.06133;stroke-linecap:butt;stroke-linejoin:miter;stroke-dasharray:none;stroke-opacity:1"
           d="m 92.089352,223.20143 c 8.351608,0.32309 12.545628,-12.54936 11.539198,-24.13466 -1.00643,-11.58531 -7.04739,-17.09341 -10.918744,-19.00461"
           id="path11" /><path
           style="fill:none;stroke:#000000;stroke-width:1.06133;stroke-linecap:butt;stroke-linejoin:miter;stroke-dasharray:none;stroke-opacity:1"
           d="m 92.052991,234.49257 c 10.843839,-7.64955 14.705689,-11.33748 15.027619,-25.64793 0.32194,-14.31045 0.15243,-26.38414 -5.56725,-31.9057 -5.27079,-5.08822 -9.262299,-5.14925 -9.262299,-5.14925"
           id="path12"
           sodipodi:nodetypes="cssc" /></g><g
         id="g12"
         style="stroke-width:1.06133;stroke-dasharray:none"
         inkscape:label="dotted lines"><path
           style="fill:none;stroke:#000000;stroke-width:1.06133;stroke-linecap:round;stroke-linejoin:round;stroke-dasharray:2.12268, 4.24535;stroke-dashoffset:0;stroke-opacity:1"
           d="M 92.34611,220.19992 H 273.1958"
           id="path1" /><path
           style="fill:none;stroke:#000000;stroke-width:1.06133;stroke-linecap:round;stroke-linejoin:round;stroke-dasharray:2.12268, 4.24535;stroke-dashoffset:0;stroke-opacity:1"
           d="M 182.77096,152.52283 V 287.877"
           id="path2" /><path
           style="fill:none;stroke:#000000;stroke-width:1.06133;stroke-linecap:round;stroke-linejoin:round;stroke-dasharray:2.12268, 4.24535;stroke-dashoffset:0;stroke-opacity:1"
           d="M 227.98338,287.877 V 152.52283"
           id="path3" /><path
           style="fill:none;stroke:#000000;stroke-width:1.06133;stroke-linecap:round;stroke-linejoin:round;stroke-dasharray:2.12268, 4.24535;stroke-dashoffset:0;stroke-opacity:1"
           d="M 137.55854,287.87699 V 152.52282"
           id="path3-8" /></g></g><g
       id="g17"><path
         style="fill:none;stroke:#000000;stroke-width:1.165;stroke-linecap:butt;stroke-linejoin:miter;stroke-dasharray:none;stroke-opacity:1;marker-start:url(#marker15);marker-end:url(#ArrowTriangleStylized)"
         d="M 75.542198,72.459982 V 184.89322"
         id="path13" /><path
         style="fill:none;stroke:#000000;stroke-width:1.165;stroke-linecap:round;stroke-linejoin:miter;stroke-dasharray:none;stroke-opacity:1"
         d="m 80.055803,128.6766 h -9.02721"
         id="path16" /></g><g
       id="g16"
       transform="matrix(0,1,-1.4975927,0,513.33839,144.50126)"
       style="stroke-width:0.817153"><path
         style="fill:none;stroke:#000000;stroke-width:0.951983;stroke-linecap:butt;stroke-linejoin:miter;stroke-dasharray:none;stroke-opacity:1;marker-start:url(#marker15-4);marker-end:url(#ArrowTriangleStylized-2)"
         d="M 52.708035,168.25261 V 280.68584"
         id="path13-9" /><path
         style="fill:none;stroke:#000000;stroke-width:0.951983;stroke-linecap:round;stroke-linejoin:miter;stroke-dasharray:none;stroke-opacity:1"
         d="M 57.22164,224.46923 H 48.19443"
         id="path16-2" /></g><text
       xml:space="preserve"
       style="font-size:8.46667px;line-height:1.25;font-family:sans-serif;stroke-width:0.264583"
       x="155.92969"
       y="211.84532"
       id="text17"><tspan
         sodipodi:role="line"
         id="tspan17"
         style="font-size:8.46667px;stroke-width:0.264583"
         x="155.92969"
         y="211.84532">Longitude</tspan></text><text
       xml:space="preserve"
       style="font-size:8.46667px;line-height:1.25;font-family:sans-serif;stroke-width:0.264583"
       x="-146.29001"
       y="66.03141"
       id="text17-5"
       transform="rotate(-90)"><tspan
         sodipodi:role="line"
         id="tspan17-0"
         style="font-size:8.46667px;stroke-width:0.264583"
         x="-146.29001"
         y="66.03141">Latitude</tspan></text></g></svg>
